# AST/ASF file generated using VICON BodyLanguage
# -----------------------------------------------
:version 1.10
:name VICON
:units
  mass 1.0
  length 0.45
  angle deg
:documentation
   .ast/.asf automatically generated from VICON data using
   VICON BodyBuilder and BodyLanguage model FoxedUp or BRILLIANT.MOD
:root
   order TX TY TZ RX RY RZ
   axis XYZ
   position 0 0 0  
   orientation 0 0 0 
:bonedata
  begin
     id 1 
     name lhipjoint
     direction 0.64773 -0.699417 0.302095 
     length 2.48597 
     axis 0 0 0  XYZ
  end
  begin
     id 2 
     name lfemur
     direction 0.34202 -0.939693 0  
     length 6.71947  
     axis 0 0 20  XYZ
    dof rx ry rz
    limits (-160.0 20.0)
           (-70.0 70.0)
           (-60.0 70.0)
  end
  begin
     id 3 
     name ltibia
     direction 0.34202 -0.939693 0   
     length 8.08777   
     axis 0 0 20   XYZ
    dof rx
    limits (-10.0 170.0)
  end
  begin
     id 4 
     name lfoot
     direction 0.0808503 -0.222134 0.971658   
     length 2.08264   
     axis -90 7.62852e-016 20   XYZ
    dof rx rz
    limits (-45.0 90.0)
           (-70.0 20.0)
  end
  begin
     id 5 
     name ltoes
     direction 1.53502e-011 -4.22007e-011 1   
     length 1.04662   
     axis -90 7.62852e-016 20   XYZ
    dof rx
    limits (-90.0 20.0)
  end
  begin
     id 6 
     name rhipjoint
     direction -0.610924 -0.726792 0.313919   
     length 2.39233  
     axis 0 0 0  XYZ 
  end
  begin
     id 7 
     name rfemur
     direction -0.34202 -0.939693 0   
     length 6.96955   
     axis 0 0 -20   XYZ
    dof rx ry rz
    limits (-160.0 20.0)
           (-70.0 70.0)
           (-70.0 60.0)
  end
  begin
     id 8 
     name rtibia
     direction -0.34202 -0.939693 0   
     length 8.19584   
     axis 0 0 -20   XYZ
    dof rx
    limits (-10.0 170.0)
 end
 begin
     id 9 
     name rfoot
     direction -0.077777 -0.213691 0.9738   
     length 2.07539  
     axis -90 -7.62852e-016 -20   XYZ
    dof rx rz
    limits (-45.0 90.0)
           (-20.0 70.0)
  end
  begin
     id 10 
     name rtoes
     direction -1.53558e-011 -4.22006e-011 1   
     length 1.04381   
     axis -90 -7.62852e-016 -20   XYZ
    dof rx
    limits (-90.0 20.0)
  end
  begin
     id 11 
     name lowerback
     direction -0.00971646 0.996074 0.0879841   
     length 1.67643   
     axis 0 0 0   XYZ
    dof rx ry rz
    limits (-20.0 45.0)
           (-30.0 30.0)
           (-30.0 30.0)
  end
  begin
     id 12 
     name upperback
     direction 0.0127391 0.991676 0.128127   
     length 1.63741   
     axis 0 0 0   XYZ
    dof rx ry rz
    limits (-20.0 45.0)
           (-30.0 30.0)
           (-30.0 30.0)
  end
  begin
     id 13 
     name thorax
     direction 0.0167583 0.996049 0.0872067   
     length 1.65931   
     axis 0 0 0   XYZ
    dof rx ry rz
    limits (-20.0 45.0)
           (-30.0 30.0)
           (-30.0 30.0)
  end
  begin
     id 14 
     name lowerneck
     direction -0.0317829 0.998312 0.0486079   
     length 1.79021   
     axis 0 0 0   XYZ
    dof rx ry rz
    limits (-20.0 45.0)
           (-30.0 30.0)
           (-30.0 30.0)
  end
  begin
     id 15 
     name upperneck
     direction 0.0896851 0.972452 -0.215159   
     length 1.78797   
     axis 0 0 0   XYZ
    dof rx ry rz
    limits (-20.0 45.0)
           (-30.0 30.0)
           (-30.0 30.0)
  end
  begin
     id 16
     name head
     direction 0.0310949 0.996503 -0.0775582  
     length 1.81549  
     axis 0 0 0   XYZ
    dof rx ry rz
    limits (-20.0 45.0)
           (-30.0 30.0)
           (-30.0 30.0)
  end
  begin
     id 17 
     name lclavicle
     direction 0.853638 0.502051 -0.138733  
     length 3.31627  
     axis 0 0 0   XYZ
    dof ry rz
    limits (-20.0 10.0)
           (0.0 20.0)
  end
  begin
     id 18 
     name lhumerus
     direction 1 -4.48962e-011 -1.41788e-018   
     length 5.54893   
     axis 180 -30 -90   XYZ
    dof rx ry rz
    limits (-60.0 90.0)
           (-90.0 90.0)
           (-90.0 90.0)
  end
  begin
     id 19
     name lradius
     direction 1 -4.48962e-011 -4.95754e-027   
     length 3.02898   
     axis 180 -30 -90   XYZ
    dof rx
    limits (-10.0 170.0)
  end
  begin
     id 20
     name lwrist
     direction 1 -4.48952e-011 -1.03764e-026   
     length 1.51449   
     axis 9.09556e-015 90 90   XYZ
    dof ry
    limits (-180.0 0.0)
 end
  begin
     id 21 
     name lhand
     direction 1 -4.4902e-011 -2.07528e-026   
     length 0.640951   
     axis 1.3242e-014 90 90   XYZ
    dof rx rz
    limits (-90.0 90.0)
           (-45.0 45.0)
  end
  begin
     id 22 
     name lfingers
     direction 1 -4.49014e-011 -4.15056e-026   
     length 0.516751   
     axis 2.64841e-014 90 90   XYZ
    dof rx
    limits (0.0 90.0)
  end
  begin
     id 23
     name lthumb
     direction 0.707107 -6.35008e-011 0.707107   
     length 0.741954   
     axis -90 45 2.85299e-015   XYZ
    dof rx rz
    limits (-45.0 45.0)
           (-45.0 45.0)
  end
  begin
     id 24 
     name rclavicle
     direction -0.888531 0.455324 -0.0565039   
     length 3.20126  
     axis 0 0 0   XYZ 
    dof ry rz
    limits (-10.0 20.0)
           (-20.0 0.0)
  end
  begin
     id 25 
     name rhumerus
     direction -1 -4.48946e-011 -8.98298e-028  
     length 5.3519   
     axis 180 30 90   XYZ
    dof rx ry rz
    limits (-90.0 60.0)
           (-90.0 90.0)
           (-90.0 90.0)
  end
  begin
     id 26 
     name rradius
     direction -1 -4.4899e-011 -3.18779e-027   
     length 3.02531   
     axis 180 30 90   XYZ
    dof rx
    limits (-10.0 170.0)
  end
  begin
     id 27 
     name rwrist
     direction -1 -4.4897e-011 -1.03764e-026   
     length 1.51266   
     axis 9.09556e-015 -90 -90   XYZ
    dof ry
    limits (-180.0 0.0)
  end
  begin
     id 28
     name rhand
     direction -1 -4.48941e-011 -2.07528e-026   
     length 0.78389   
     axis 1.3242e-014 -90 -90   XYZ
    dof rx rz
    limits (-90.0 90.0)
           (-45.0 45.0)
  end
  begin
     id 29
     name rfingers
     direction -1 -4.49012e-011 -4.15056e-026   
     length 0.631992   
     axis 2.64841e-014 -90 -90   XYZ
    dof rx
    limits (0.0 90.0)
  end
  begin
     id 30
     name rthumb
     direction -0.707107 -6.3496e-011 0.707107   
     length 0.907418   
     axis -90 -45 -2.85299e-015   XYZ
    dof rx rz
    limits (-45.0 45.0)
           (-45.0 45.0)
  end
:hierarchy
  begin
    root lhipjoint rhipjoint lowerback
    lhipjoint lfemur
    lfemur ltibia
    ltibia lfoot
    lfoot ltoes
    rhipjoint rfemur
    rfemur rtibia
    rtibia rfoot
    rfoot rtoes
    lowerback upperback
    upperback thorax
    thorax lowerneck lclavicle rclavicle
    lowerneck upperneck
    upperneck head
    lclavicle lhumerus
    lhumerus lradius
    lradius lwrist
    lwrist lhand lthumb
    lhand lfingers
    rclavicle rhumerus
    rhumerus rradius
    rradius rwrist
    rwrist rhand rthumb
    rhand rfingers
  end

#!OML:ASF E:\Style3\Style3.ASF
:FULLY-SPECIFIED
:DEGREES
1
root -0.558435 17.8643 0.978319 -114.396 87.3945 -132.361
lowerback 3.90365 -2.64704 -1.75827
upperback -1.49115 -3.58088 1.34872
thorax -3.52952 -1.7268 2.61662
lowerneck -12.0339 -4.18703 -6.41344
upperneck 30.0953 -5.27731 5.27751
head 12.2247 -2.16678 2.4209
rclavicle -2.8128e-014 2.26615e-014
rhumerus -56.6119 39.2704 -83.8627
rradius 107.653
rwrist -30.3804
rhand 34.1279 4.88824
rfingers 7.12502
rthumb 57.3749 -11.3811
lclavicle -2.8128e-014 2.26615e-014
lhumerus -51.1519 -7.8749 73.9467
lradius 108.609
lwrist 32.224
lhand 17.541 38.3974
lfingers 7.12502
lthumb 42.2379 62.9072
rfemur -23.225 10.7667 17.4954
rtibia 17.1902
rfoot -10.1206 -16.6101
rtoes -20.6447
lfemur -16.9354 -26.3364 -5.51032
ltibia 5.09218
lfoot -9.51388 32.9501
ltoes -16.355
2
root -0.586719 17.866 0.991799 -112.438 87.4274 -130.664
lowerback 4.15532 -2.56403 -1.67296
upperback -1.22058 -3.47428 1.18142
thorax -3.41254 -1.68165 2.39428
lowerneck -12.0402 -4.20479 -6.34161
upperneck 30.5679 -5.28634 5.22644
head 12.415 -2.15787 2.39836
rclavicle -2.21645e-014 1.35174e-014
rhumerus -57.0704 39.3839 -84.1536
rradius 107.737
rwrist -30.5464
rhand 33.7223 5.18066
rfingers 7.12502
rthumb 57.0187 -11.3898
lclavicle -2.21645e-014 1.35174e-014
lhumerus -51.2711 -8.48874 73.8278
lradius 108.646
lwrist 32.6177
lhand 17.2874 38.3495
lfingers 7.12502
lthumb 42.0002 62.9395
rfemur -23.681 10.525 17.5272
rtibia 17.265
rfoot -9.98601 -16.2474
rtoes -20.9946
lfemur -17.4016 -26.1692 -5.31624
ltibia 5.26026
lfoot -9.47749 32.9461
ltoes -16.4669
3
root -0.617725 17.8687 1.00704 -110.011 87.4512 -128.495
lowerback 4.47736 -2.49819 -1.662
upperback -0.955005 -3.39212 1.08433
thorax -3.32994 -1.64506 2.29096
lowerneck -11.9586 -4.25215 -6.48203
upperneck 30.9768 -5.31178 5.25338
head 12.5742 -2.17343 2.44014
rclavicle 0 7.55382e-015
rhumerus -57.4502 39.6319 -84.4305
rradius 107.687
rwrist -30.4309
rhand 33.3109 5.63945
rfingers 7.12502
rthumb 56.6565 -11.2292
lclavicle 0 7.55382e-015
lhumerus -51.5633 -8.92423 73.7325
lradius 108.802
lwrist 32.9548
lhand 17.2698 38.2216
lfingers 7.12502
lthumb 41.9837 62.8171
rfemur -24.1067 10.3024 17.5907
rtibia 17.2721
rfoot -9.89555 -15.8962
rtoes -20.928
lfemur -17.7886 -25.9732 -5.08336
ltibia 5.25959
lfoot -9.39478 32.9239
ltoes -16.4062
4
root -0.642525 17.8713 1.01947 -111.506 87.4115 -130.134
lowerback 4.82806 -2.51663 -1.68227
upperback -0.610261 -3.42195 1.01746
thorax -3.17228 -1.66445 2.24242
lowerneck -11.959 -4.2122 -6.55049
upperneck 31.25 -5.23038 5.27954
head 12.6847 -2.13647 2.48085
rclavicle -1.64991e-014 -2.0276e-014
rhumerus -57.6044 40.0741 -84.5106
rradius 107.564
rwrist -30.8635
rhand 33.1289 5.78488
rfingers 7.12502
rthumb 56.4958 -11.2135
lclavicle -1.64991e-014 -2.0276e-014
lhumerus -51.8941 -9.32184 73.6056
lradius 109.046
lwrist 33.3399
lhand 17.3633 38.2955
lfingers 7.12502
lthumb 42.0713 62.8616
rfemur -24.3389 10.2573 17.5833
rtibia 17.2491
rfoot -9.85784 -15.8666
rtoes -20.876
lfemur -18.1632 -25.9831 -4.88411
ltibia 5.36082
lfoot -9.46396 32.9317
ltoes -16.0131
5
root -0.660104 17.8726 1.02946 -113.512 87.3176 -132.182
lowerback 5.17284 -2.55325 -1.61932
upperback -0.20921 -3.46823 0.964133
thorax -2.95636 -1.69369 2.16049
lowerneck -12.1067 -4.16396 -6.57384
upperneck 31.5987 -5.10985 5.20373
head 12.8515 -2.08789 2.47997
rclavicle 2.3059e-014 2.10712e-014
rhumerus -57.7634 40.6435 -84.4498
rradius 107.636
rwrist -31.7389
rhand 33.1763 5.61424
rfingers 7.12502
rthumb 56.5376 -11.3506
lclavicle 2.3059e-014 2.10712e-014
lhumerus -52.2058 -9.65005 73.5553
lradius 109.2
lwrist 33.6811
lhand 17.4672 38.3119
lfingers 7.12502
lthumb 42.1687 62.8451
rfemur -24.388 10.1264 17.6644
rtibia 17.1858
rfoot -9.75879 -15.881
rtoes -20.9935
lfemur -18.3639 -26.0731 -4.7377
ltibia 5.45131
lfoot -9.70243 32.944
ltoes -15.6183
6
root -0.683501 17.8727 1.04333 -112.51 87.2131 -131.298
lowerback 5.48668 -2.5149 -1.47722
upperback 0.181825 -3.40794 0.896434
thorax -2.74391 -1.66975 2.01084
lowerneck -12.2848 -4.16812 -6.5
upperneck 32.0088 -5.04729 5.00949
head 13.0502 -2.06712 2.40821
rclavicle -3.51849e-014 1.90833e-014
rhumerus -57.9696 40.7886 -84.3433
rradius 107.754
rwrist -32.4366
rhand 33.896 5.28384
rfingers 7.12502
rthumb 57.1714 -11.1585
lclavicle -3.51849e-014 1.90833e-014
lhumerus -52.3519 -10.0292 73.5136
lradius 109.267
lwrist 34.0141
lhand 17.6435 38.4262
lfingers 7.12502
lthumb 42.3339 62.9034
rfemur -24.5272 10.1025 17.8008
rtibia 17.0554
rfoot -9.58177 -15.8506
rtoes -21.0954
lfemur -18.7074 -26.0158 -4.4751
ltibia 5.66916
lfoot -9.90649 32.9279
ltoes -15.3225
7
root -0.711922 17.8744 1.06095 -111.994 87.1393 -130.937
lowerback 5.8843 -2.46217 -1.41384
upperback 0.522044 -3.33404 0.798055
thorax -2.62816 -1.63545 1.87835
lowerneck -12.4779 -4.18709 -6.35388
upperneck 32.5529 -5.02067 4.82534
head 13.3127 -2.04899 2.32509
rclavicle -1.13307e-014 1.98785e-014
rhumerus -58.2228 40.6322 -84.2753
rradius 107.82
rwrist -33.0255
rhand 35.3228 4.72328
rfingers 7.12502
rthumb 58.418 -10.617
lclavicle -1.13307e-014 1.98785e-014
lhumerus -52.5857 -10.5022 73.4246
lradius 109.351
lwrist 34.3554
lhand 17.9704 38.5483
lfingers 7.12502
lthumb 42.6399 62.9203
rfemur -24.7139 10.2051 17.8623
rtibia 16.8903
rfoot -9.42077 -15.9202
rtoes -21.1293
lfemur -19.2216 -25.9468 -4.19522
ltibia 6.04857
lfoot -9.82545 32.945
ltoes -15.79
8
root -0.743239 17.8758 1.07752 -109.534 87.0669 -128.568
lowerback 6.44693 -2.39559 -1.29558
upperback 0.821706 -3.23877 0.67956
thorax -2.6507 -1.5882 1.7018
lowerneck -12.5088 -4.1664 -6.23341
upperneck 33.024 -4.96515 4.73843
head 13.5131 -2.01079 2.28961
rclavicle 1.0138e-014 -2.54444e-014
rhumerus -58.6547 40.6125 -84.4616
rradius 107.876
rwrist -33.2928
rhand 36.2307 4.7119
rfingers 7.12502
rthumb 59.204 -9.8777
lclavicle 1.0138e-014 -2.54444e-014
lhumerus -52.9997 -10.8814 73.2441
lradius 109.541
lwrist 34.6087
lhand 18.6742 38.5556
lfingers 7.12502
lthumb 43.2981 62.6954
rfemur -24.8674 10.1315 18.0345
rtibia 16.7557
rfoot -9.30674 -15.687
rtoes -20.7564
lfemur -19.5833 -25.806 -3.94596
ltibia 6.40143
lfoot -9.96389 32.9015
ltoes -15.7638
9
root -0.774617 17.8762 1.09391 -103.235 87.063 -122.413
lowerback 6.93898 -2.29169 -1.27039
upperback 1.11504 -3.09695 0.612581
thorax -2.63276 -1.51665 1.62168
lowerneck -12.5458 -4.08202 -6.13294
upperneck 33.446 -4.79143 4.59169
head 13.6862 -1.93295 2.25062
rclavicle 1.43125e-014 -1.03368e-014
rhumerus -59.0389 40.8618 -84.6133
rradius 107.847
rwrist -33.2212
rhand 36.3132 5.54645
rfingers 7.12502
rthumb 59.2752 -8.97292
lclavicle 1.43125e-014 -1.03368e-014
lhumerus -53.3448 -11.0821 73.0778
lradius 109.84
lwrist 34.8205
lhand 19.3811 38.6678
lfingers 7.12502
lthumb 43.9581 62.5663
rfemur -25.1397 9.94798 18.2553
rtibia 16.6286
rfoot -9.12202 -15.1508
rtoes -20.4896
lfemur -19.8992 -25.4557 -3.75627
ltibia 6.74436
lfoot -10.426 32.8149
ltoes -14.9149
10
root -0.822079 17.8779 1.11825 -105.409 86.9406 -124.94
lowerback 7.4574 -2.29066 -1.30615
upperback 1.33066 -3.09579 0.598894
thorax -2.69767 -1.51305 1.64548
lowerneck -12.7065 -4.09042 -6.09395
upperneck 33.9544 -4.69698 4.35576
head 13.934 -1.90721 2.17428
rclavicle -4.6118e-014 -1.98785e-014
rhumerus -59.3519 41.0452 -84.6582
rradius 107.796
rwrist -33.3109
rhand 35.8337 6.54822
rfingers 7.12502
rthumb 58.8611 -8.37461
lclavicle -4.6118e-014 -1.98785e-014
lhumerus -53.465 -11.3942 73.0047
lradius 109.993
lwrist 35.1004
lhand 19.8796 39.1115
lfingers 7.12502
lthumb 44.4229 62.8348
rfemur -25.6381 9.89604 18.2858
rtibia 16.51
rfoot -8.908 -15.1866
rtoes -20.3355
lfemur -20.7952 -25.4337 -3.26471
ltibia 7.09903
lfoot -10.3278 32.8188
ltoes -15.0966
11
root -0.84058 17.8781 1.13268 -97.7401 86.9744 -117.365
lowerback 7.74849 -2.09195 -1.25357
upperback 1.734 -2.81957 0.538769
thorax -2.45849 -1.37648 1.53007
lowerneck -12.9472 -4.12972 -6.08497
upperneck 34.4803 -4.63168 4.11625
head 14.2153 -1.89838 2.09568
rclavicle 1.98785e-015 -3.26007e-014
rhumerus -59.6216 41.1868 -84.5549
rradius 107.811
rwrist -33.6363
rhand 35.6733 6.6296
rfingers 7.12502
rthumb 58.7221 -8.42567
lclavicle 1.98785e-015 -3.26007e-014
lhumerus -53.468 -11.7776 73.0033
lradius 110.009
lwrist 35.495
lhand 19.9051 39.5695
lfingers 7.12502
lthumb 44.4467 63.2838
rfemur -25.8483 9.85887 18.4861
rtibia 16.4583
rfoot -8.77393 -14.7013
rtoes -20.7479
lfemur -20.8637 -25.0116 -3.1972
ltibia 7.30203
lfoot -11.034 32.651
ltoes -13.8512
12
root -0.869246 17.8798 1.15152 -96.4646 86.878 -116.269
lowerback 8.15252 -2.02977 -1.22675
upperback 2.07677 -2.72603 0.524624
thorax -2.33366 -1.32834 1.49949
lowerneck -13.1705 -4.10849 -6.09177
upperneck 35.0295 -4.51325 4.00703
head 14.5086 -1.85184 2.08234
rclavicle 8.74653e-015 -1.59028e-015
rhumerus -59.8356 41.3493 -84.4646
rradius 107.859
rwrist -34.0403
rhand 35.5765 6.33235
rfingers 7.12502
rthumb 58.6382 -8.80224
lclavicle 8.74653e-015 -1.59028e-015
lhumerus -53.5195 -12.0251 72.9353
lradius 110.113
lwrist 35.8775
lhand 19.9652 39.8645
lfingers 7.12502
lthumb 44.5026 63.5573
rfemur -26.1324 9.77026 18.6462
rtibia 16.4111
rfoot -8.6347 -14.4917
rtoes -20.7298
lfemur -21.2252 -24.8744 -2.90762
ltibia 7.45826
lfoot -11.2527 32.5824
ltoes -13.201
13
root -0.912963 17.8824 1.17461 -102.142 86.7865 -122.402
lowerback 8.56715 -2.11705 -1.30245
upperback 2.247 -2.84407 0.499746
thorax -2.38076 -1.38366 1.54084
lowerneck -13.3775 -4.07454 -6.02738
upperneck 35.7221 -4.38919 3.91018
head 14.8692 -1.78984 2.06692
rclavicle 4.6118e-014 -7.15625e-015
rhumerus -60.0893 41.4932 -84.4902
rradius 107.872
rwrist -34.3265
rhand 35.1046 6.82239
rfingers 7.12502
rthumb 58.2282 -8.69244
lclavicle 4.6118e-014 -7.15625e-015
lhumerus -53.7316 -12.1666 72.8107
lradius 110.227
lwrist 35.9923
lhand 20.1988 39.9431
lfingers 7.12502
lthumb 44.7203 63.552
rfemur -26.719 9.68507 18.5529
rtibia 16.3487
rfoot -8.42738 -14.6754
rtoes -20.3868
lfemur -22.2086 -24.9961 -2.41071
ltibia 7.61985
lfoot -10.3514 32.7779
ltoes -14.8175
14
root -0.93418 17.8822 1.18979 -95.3479 86.8375 -115.777
lowerback 8.95176 -2.0009 -1.38429
upperback 2.5559 -2.68928 0.442302
thorax -2.27809 -1.30422 1.51948
lowerneck -13.6429 -4.03383 -5.99761
upperneck 36.3781 -4.23399 3.7861
head 15.2328 -1.72527 2.05007
rclavicle -3.57812e-015 8.74653e-015
rhumerus -60.3659 41.7338 -84.5125
rradius 107.917
rwrist -34.5147
rhand 35.0058 6.60274
rfingers 7.12502
rthumb 58.1422 -8.99038
lclavicle -3.57812e-015 8.74653e-015
lhumerus -53.9146 -12.2523 72.6783
lradius 110.191
lwrist 35.9907
lhand 20.5879 39.8556
lfingers 7.12502
lthumb 45.0824 63.3226
rfemur -27.0602 9.62706 18.6881
rtibia 16.3704
rfoot -8.52218 -14.1319
rtoes -19.8362
lfemur -22.269 -24.5774 -2.35339
ltibia 7.59952
lfoot -10.3428 32.7258
ltoes -14.9557
15
root -0.971141 17.8821 1.20633 -96.1881 86.805 -116.96
lowerback 9.36278 -2.01748 -1.41523
upperback 2.81353 -2.70548 0.431994
thorax -2.23649 -1.30907 1.53801
lowerneck -13.7916 -3.96778 -5.98843
upperneck 36.7697 -4.03265 3.61428
head 15.4419 -1.65645 2.01864
rclavicle 1.19271e-014 7.95139e-015
rhumerus -60.5445 41.9918 -84.4018
rradius 107.959
rwrist -34.7563
rhand 34.8098 6.89404
rfingers 7.12502
rthumb 57.9714 -8.85304
lclavicle 1.19271e-014 7.95139e-015
lhumerus -54.0623 -12.2478 72.6455
lradius 110.21
lwrist 35.9925
lhand 20.7945 39.7595
lfingers 7.12502
lthumb 45.2745 63.1501
rfemur -27.6056 9.5399 18.6619
rtibia 16.3541
rfoot -8.65764 -13.9565
rtoes -18.7554
lfemur -22.8776 -24.4793 -2.01842
ltibia 7.64114
lfoot -9.88781 32.7457
ltoes -15.6684
